<svg width="19" height="20" viewBox="0 0 19 22" fill="none" xmlns="http://www.w3.org/2000/svg">
<g clip-path="url(#clip0_72_1573)">
<path d="M18.1608 0.970382C17.6226 0.348146 16.8931 -0.00134277 16.1326 -0.00134277C15.372 -0.00134277 14.6425 0.348146 14.1043 0.970382L0 17.3017V21.9987H4.0565L18.1608 5.66738C18.698 5.04407 18.9997 4.19946 18.9997 3.31888C18.9997 2.4383 18.698 1.59369 18.1608 0.970382V0.970382ZM3.40417 20.1654H1.58333V18.057L12.1204 5.86538L13.9412 7.97371L3.40417 20.1654ZM17.0414 4.37121L15.0567 6.6693L13.2398 4.56096L15.2237 2.26655C15.4652 1.98697 15.7927 1.8299 16.1342 1.8299C16.4756 1.8299 16.8031 1.98697 17.0446 2.26655C17.286 2.54613 17.4217 2.92533 17.4217 3.32072C17.4217 3.7161 17.286 4.0953 17.0446 4.37488L17.0414 4.37121Z" fill="#374957"/>
</g>
<defs>
<clipPath id="clip0_72_1573">
<rect width="19" height="22" fill="white"/>
</clipPath>
</defs>
</svg>
