<svg width="21" height="20" viewBox="0 0 21 20" fill="none" xmlns="http://www.w3.org/2000/svg">
<g clip-path="url(#clip0_72_1610)">
<path d="M19.2501 3.33333H14.8751V1.66667C14.8751 1.22464 14.6907 0.800716 14.3626 0.488155C14.0344 0.175595 13.5893 0 13.1251 0L7.87512 0C7.41099 0 6.96587 0.175595 6.63769 0.488155C6.3095 0.800716 6.12512 1.22464 6.12512 1.66667V3.33333H1.75012V5H3.50012V17.5C3.50012 18.163 3.77668 18.7989 4.26897 19.2678C4.76125 19.7366 5.42893 20 6.12512 20H14.8751C15.5713 20 16.239 19.7366 16.7313 19.2678C17.2236 18.7989 17.5001 18.163 17.5001 17.5V5H19.2501V3.33333ZM7.87512 1.66667H13.1251V3.33333H7.87512V1.66667ZM15.7501 17.5C15.7501 17.721 15.6579 17.933 15.4938 18.0893C15.3297 18.2455 15.1072 18.3333 14.8751 18.3333H6.12512C5.89306 18.3333 5.6705 18.2455 5.5064 18.0893C5.34231 17.933 5.25012 17.721 5.25012 17.5V5H15.7501V17.5Z" fill="#374957"/>
<path d="M9.625 8.33282H7.875V14.9995H9.625V8.33282Z" fill="#374957"/>
<path d="M13.1253 8.33282H11.3753V14.9995H13.1253V8.33282Z" fill="#374957"/>
</g>
<defs>
<clipPath id="clip0_72_1610">
<rect width="21" height="20" fill="white"/>
</clipPath>
</defs>
</svg>
